<!-- Generator: Adobe Illustrator 19.2.1, SVG Export Plug-In  -->
<svg version="1.1"
	 xmlns="http://www.w3.org/2000/svg" xmlns:xlink="http://www.w3.org/1999/xlink" xmlns:a="http://ns.adobe.com/AdobeSVGViewerExtensions/3.0/"
	 x="0px" y="0px" width="192px" height="192px" viewBox="0 0 192 192" style="enable-background:new 0 0 192 192;"
	 xml:space="preserve">
<style type="text/css">
	.st0{fill:#FFD230;}
	.st1{display:none;}
	.st2{display:inline;fill:#FFD230;}
</style>
<defs>
</defs>
<rect class="st0" width="192" height="192"/>
<g>
	<path d="M133.6,39.4h-23.3v21.9h23.3V39.4z M129,57l-0.1,0.1c-1.6,0.8-3.4,1.4-6,1.4h0c-3.1,0-5.4-1.1-6.9-2.7
		c-1.5-1.6-2.2-3.5-2.2-5.2c0-2.4,1-4.5,2.6-6c1.6-1.5,3.9-2.4,6.6-2.4c1.7,0,3.4,0.4,5.7,1.3l0.2,0.1v2.9l-0.4-0.2
		c-2-1.1-3.6-1.6-5.5-1.6c-3.6,0-6.2,2.4-6.2,5.6c0,3.3,2.5,5.6,6.3,5.6c1.8,0,3.7-0.6,5.5-1.7L129,54V57z M106.8,39.4H83.5v21.9
		h23.3V39.4z M99.9,56.8c-0.9,0.8-2.4,1.4-4.5,1.4h-5.8V42.5h5c1.8,0,3.1,0.5,4,1.3c0.9,0.8,1.3,1.8,1.3,2.9c0,0.8-0.2,1.6-0.7,2.1
		c-0.3,0.4-0.8,0.8-1.4,1.1c2.1,0.6,3.5,2.1,3.4,4.1C101.2,54.9,100.8,56,99.9,56.8 M97.5,52.1c-0.5-0.4-1.4-0.6-2.6-0.6h-2.6v4.3
		h2.7c1.3,0,2.1-0.3,2.6-0.7c0.5-0.4,0.6-0.9,0.6-1.5C98.3,53,98.1,52.5,97.5,52.1 M96.1,48.4c0.5-0.4,0.7-0.9,0.7-1.6
		c0-0.5-0.2-1-0.5-1.3c-0.4-0.3-1-0.6-2.1-0.6h-1.9V49h1.3C94.8,49,95.6,48.8,96.1,48.4 M56.6,61.3h23.3V39.4H56.6V61.3z M62.7,42.5
		h5c1.8,0,3.1,0.5,4,1.3c0.9,0.8,1.3,1.8,1.3,2.9c0,0.8-0.2,1.6-0.7,2.1c-0.3,0.4-0.8,0.8-1.4,1.1c2.1,0.6,3.4,2.1,3.4,4.1
		c0,1-0.4,2.1-1.3,2.9c-0.9,0.8-2.4,1.4-4.5,1.4h-5.8V42.5z M69.3,48.4c0.5-0.4,0.7-0.9,0.7-1.6c0-0.5-0.2-1-0.5-1.3s-1-0.6-2.1-0.6
		h-1.9V49h1.3C68,49,68.8,48.8,69.3,48.4 M71.5,53.6c0-0.6-0.2-1.1-0.8-1.5c-0.5-0.4-1.4-0.6-2.6-0.6h-2.6v4.3h2.7
		c1.3,0,2.1-0.3,2.6-0.7C71.3,54.6,71.5,54.1,71.5,53.6"/>
</g>
<g>
	<rect y="144" width="192" height="48"/>
	<g class="st1">
		<path class="st2" d="M159.3,174.2v-12.4h3.1c1.9,0,3.3,0.5,4.2,1.6c1,1.1,1.4,2.6,1.4,4.6c0,2-0.5,3.6-1.5,4.6
			c-1,1.1-2.4,1.6-4.2,1.6H159.3z M155,177.8h7.5c2.1,0,3.9-0.4,5.3-1.2c1.5-0.8,2.6-1.9,3.4-3.4c0.8-1.5,1.2-3.2,1.2-5.3
			s-0.4-3.8-1.2-5.3c-0.8-1.5-1.9-2.6-3.4-3.3c-1.5-0.8-3.3-1.2-5.3-1.2H155V177.8z M150.6,177.8v-19.7h-4.1v13.4
			c-1.4-2.3-2.9-4.6-4.3-6.8c-1.4-2.2-2.9-4.5-4.4-6.7h-4.3v19.7h4.1v-13.6c1.4,2.2,2.9,4.4,4.3,6.7c1.5,2.3,2.9,4.6,4.3,6.9H150.6z
			 M120.8,162.5c0.5,1.2,0.9,2.5,1.4,3.8c0.5,1.3,0.9,2.6,1.4,3.8H118C118.9,167.5,119.8,165,120.8,162.5 M130.9,177.8
			c-1.2-3.3-2.5-6.5-3.8-9.8c-1.3-3.3-2.6-6.6-4-9.8h-4.6c-1.3,3.1-2.6,6.3-3.9,9.6c-1.3,3.3-2.6,6.6-3.8,10.1h4.5
			c0.5-1.4,1-2.8,1.4-4.3h8c0.5,1.4,1,2.8,1.4,4.3H130.9z M95.2,177.8h13.6v-3.7h-9.3v-16h-4.2V177.8z M75.7,161.9h6.2v16h4.2v-16
			h6.2v-3.7H75.7V161.9z M62.1,173.8c-0.8-0.5-1.4-1.3-1.8-2.2c-0.4-1-0.6-2.2-0.6-3.5c0-1.4,0.2-2.6,0.6-3.5c0.4-1,1-1.7,1.8-2.2
			c0.8-0.5,1.8-0.8,2.9-0.8c1.1,0,2.1,0.3,2.9,0.8c0.8,0.5,1.4,1.3,1.8,2.2c0.4,1,0.6,2.2,0.6,3.5c0,1.4-0.2,2.6-0.6,3.5
			c-0.4,1-1,1.7-1.8,2.2c-0.8,0.5-1.8,0.8-2.9,0.8C63.8,174.6,62.9,174.3,62.1,173.8 M60.9,158.5c-1.2,0.5-2.2,1.2-3.1,2
			c-0.9,0.9-1.5,2-2,3.2c-0.5,1.3-0.7,2.7-0.7,4.2c0,1.6,0.2,3,0.7,4.2c0.5,1.3,1.1,2.3,2,3.2c0.9,0.9,1.9,1.6,3.1,2.1
			c1.2,0.5,2.5,0.7,4,0.7s2.8-0.2,4-0.7c1.2-0.5,2.2-1.2,3.1-2.1c0.9-0.9,1.5-2,2-3.2c0.5-1.3,0.7-2.7,0.7-4.2c0-1.6-0.2-3-0.7-4.2
			c-0.5-1.3-1.1-2.3-2-3.2c-0.9-0.9-1.9-1.6-3.1-2c-1.2-0.5-2.5-0.7-4-0.7S62.1,158,60.9,158.5 M50.2,177.8c1.1-0.3,2-0.6,2.8-1.1
			v-3.8c-1.7,1.1-3.6,1.6-5.6,1.6c-1.3,0-2.4-0.3-3.4-0.8c-0.9-0.5-1.6-1.3-2.1-2.2c-0.5-1-0.7-2.2-0.7-3.6c0-1.4,0.3-2.6,0.8-3.5
			c0.5-1,1.2-1.7,2.2-2.2c0.9-0.5,2.1-0.8,3.4-0.8c1,0,1.9,0.1,2.8,0.4c0.9,0.3,1.7,0.7,2.4,1.2v-3.9c-0.8-0.4-1.7-0.8-2.7-1
			c-1-0.2-2-0.3-3.1-0.3c-1.6,0-3,0.2-4.2,0.7c-1.3,0.5-2.3,1.2-3.2,2.1c-0.9,0.9-1.6,2-2.1,3.2c-0.5,1.3-0.7,2.7-0.7,4.2
			c0,1.6,0.2,3,0.7,4.3c0.5,1.3,1.1,2.4,2,3.2c0.9,0.9,1.9,1.6,3.2,2c1.2,0.5,2.6,0.7,4.2,0.7C48,178.2,49.1,178.1,50.2,177.8
			 M30.4,177.5c1.2-0.5,2.1-1.2,2.8-2.1c0.6-0.9,1-2,1-3.3c0-1-0.2-1.8-0.5-2.5s-0.8-1.2-1.4-1.7c-0.6-0.4-1.3-0.8-2.1-1.1
			c-0.8-0.3-1.7-0.5-2.6-0.8c-0.7-0.2-1.4-0.4-1.9-0.6c-0.5-0.2-1-0.4-1.3-0.7c-0.3-0.3-0.4-0.7-0.4-1.2c0-0.7,0.3-1.3,0.9-1.6
			c0.6-0.4,1.5-0.6,2.6-0.6c1,0,2,0.1,3.1,0.4c1,0.3,1.9,0.7,2.7,1.2v-3.7c-0.8-0.4-1.7-0.7-2.7-1c-1-0.2-2-0.4-3.1-0.4
			c-1.6,0-3,0.2-4.1,0.7c-1.2,0.5-2,1.2-2.7,2.1c-0.6,0.9-0.9,2-0.9,3.2c0,0.9,0.1,1.6,0.4,2.3c0.3,0.6,0.7,1.2,1.3,1.6
			c0.6,0.4,1.3,0.8,2.1,1.2c0.8,0.3,1.8,0.6,2.9,0.9c0.7,0.2,1.3,0.3,1.8,0.5c0.5,0.2,1,0.4,1.3,0.8c0.3,0.3,0.5,0.8,0.5,1.3
			c0,0.8-0.3,1.3-1,1.8c-0.7,0.4-1.6,0.6-2.8,0.6c-2.2,0-4.3-0.6-6.2-1.8v3.8c1,0.5,2,0.9,3,1.1c1.1,0.2,2.1,0.4,3.2,0.4
			C27.7,178.2,29.2,178,30.4,177.5"/>
	</g>
</g>
<g>
	<path class="st0" d="M73.3,177.8c-0.5-1.5-1-2.9-1.4-4.3h-8c-0.5,1.4-1,2.9-1.4,4.3h-4.6c1.3-3.5,2.5-6.9,3.8-10.2
		c1.3-3.3,2.6-6.5,3.9-9.6h4.6c1.4,3.3,2.7,6.6,4,9.9c1.3,3.3,2.6,6.6,3.8,9.9H73.3z M65.1,170h5.6c-0.4-1.3-0.9-2.6-1.4-3.9
		c-0.5-1.3-0.9-2.5-1.4-3.8C66.9,164.9,66,167.4,65.1,170z"/>
	<path class="st0" d="M80.6,158h4.3v16.1h9.4v3.7H80.6V158z"/>
	<path class="st0" d="M112.7,172.1c0,1.2-0.3,2.2-0.9,3c-0.6,0.8-1.5,1.5-2.6,2c-1.1,0.5-2.5,0.7-4.1,0.7h-8.1V158h7.6
		c2.3,0,4,0.4,5.2,1.3c1.2,0.9,1.9,2.1,1.9,3.8c0,0.9-0.2,1.8-0.7,2.5s-1.1,1.2-2,1.6c1.2,0.4,2.1,1,2.8,1.8
		C112.4,169.9,112.7,170.9,112.7,172.1z M101,166.2h3.1c1.1,0,1.9-0.2,2.5-0.7c0.6-0.5,0.8-1.1,0.8-1.9c0-1.6-1.1-2.4-3.3-2.4H101
		V166.2z M101,174.6h3.6c1.2,0,2.2-0.2,2.9-0.7c0.7-0.5,1-1.1,1-2c0-1.8-1.3-2.7-3.8-2.7H101V174.6z"/>
	<path class="st0" d="M129.5,177.8c-0.5-1.5-1-2.9-1.4-4.3h-8c-0.5,1.4-1,2.9-1.4,4.3H114c1.3-3.5,2.5-6.9,3.8-10.2
		c1.3-3.3,2.6-6.5,3.9-9.6h4.6c1.4,3.3,2.7,6.6,4,9.9c1.3,3.3,2.6,6.6,3.8,9.9H129.5z M121.2,170h5.6c-0.4-1.3-0.9-2.6-1.4-3.9
		c-0.5-1.3-0.9-2.5-1.4-3.8C123.1,164.9,122.1,167.4,121.2,170z"/>
</g>
<g>
	<path d="M38.3,102.7c-1.6,0-3.1-0.2-4.7-0.5c-1.5-0.3-3-0.9-4.4-1.6V95c2.9,1.7,5.9,2.6,9.1,2.6c1.8,0,3.2-0.3,4.2-0.9
		c1-0.6,1.4-1.5,1.4-2.6c0-0.8-0.2-1.5-0.7-2c-0.5-0.5-1.1-0.8-1.9-1.1c-0.8-0.3-1.6-0.5-2.6-0.8c-1.6-0.4-3-0.8-4.2-1.3
		c-1.2-0.5-2.2-1.1-3.1-1.7c-0.8-0.7-1.5-1.4-1.9-2.4c-0.4-0.9-0.6-2-0.6-3.3c0-1.8,0.5-3.4,1.4-4.7c0.9-1.3,2.2-2.3,3.9-3
		c1.7-0.7,3.7-1.1,6-1.1c1.5,0,3,0.2,4.5,0.5c1.5,0.3,2.8,0.8,4,1.4v5.5c-1.2-0.7-2.5-1.3-4-1.7s-3-0.6-4.5-0.6
		c-1.6,0-2.9,0.3-3.8,0.8c-0.9,0.6-1.3,1.4-1.3,2.4c0,0.8,0.2,1.3,0.6,1.8c0.4,0.4,1,0.8,1.8,1.1c0.8,0.3,1.7,0.6,2.8,0.8
		c1.4,0.3,2.6,0.7,3.8,1.1c1.2,0.4,2.2,0.9,3.1,1.6c0.9,0.6,1.6,1.5,2.1,2.5c0.5,1,0.7,2.2,0.7,3.7c0,1.9-0.5,3.5-1.4,4.9
		c-0.9,1.4-2.3,2.4-4.1,3.1C42.9,102.4,40.8,102.7,38.3,102.7z"/>
	<path d="M55.1,102.1V73.3h10.3c3.7,0,6.5,0.8,8.5,2.5c2,1.6,3,4,3,7c0,2-0.4,3.7-1.3,5.1c-0.9,1.4-2.2,2.5-3.9,3.2
		c-1.7,0.7-3.8,1.1-6.3,1.1h-4.2v9.8H55.1z M61.3,87.4h3.9c1.8,0,3.2-0.4,4.2-1.1c1-0.7,1.4-1.9,1.4-3.5c0-1.6-0.5-2.7-1.4-3.5
		c-1-0.8-2.3-1.1-4.1-1.1h-3.9V87.4z"/>
	<path d="M94.9,72.7c2.2,0,4.1,0.3,5.9,1c1.8,0.7,3.3,1.7,4.5,3c1.2,1.3,2.2,2.9,2.9,4.7c0.7,1.8,1,3.9,1,6.2c0,2.3-0.3,4.3-1,6.2
		c-0.7,1.9-1.6,3.4-2.9,4.7c-1.2,1.3-2.8,2.3-4.5,3c-1.8,0.7-3.7,1-5.9,1c-2.2,0-4.1-0.3-5.9-1c-1.8-0.7-3.3-1.7-4.5-3
		c-1.2-1.3-2.2-2.9-2.9-4.7c-0.7-1.9-1-3.9-1-6.2c0-2.3,0.3-4.4,1-6.2c0.7-1.8,1.6-3.4,2.9-4.7c1.2-1.3,2.7-2.3,4.5-3
		C90.7,73.1,92.7,72.7,94.9,72.7z M93.3,65.3c0.9,0.8,1.9,1.6,2.9,2.5c1,0.9,1.9,1.8,2.9,2.7h-5.8c-0.9-0.8-2-1.6-3.1-2.5
		s-2.4-1.8-3.7-2.7H93.3z M94.9,97.3c1.6,0,3-0.4,4.2-1.1c1.2-0.8,2.1-1.9,2.7-3.3c0.6-1.4,0.9-3.2,0.9-5.2c0-2-0.3-3.8-0.9-5.2
		c-0.6-1.4-1.5-2.5-2.7-3.3c-1.2-0.8-2.6-1.1-4.2-1.1c-1.6,0-3,0.4-4.2,1.1c-1.2,0.8-2.1,1.8-2.7,3.3c-0.6,1.4-0.9,3.2-0.9,5.2
		c0,2,0.3,3.8,0.9,5.2c0.6,1.4,1.5,2.5,2.7,3.3C91.8,96.9,93.2,97.3,94.9,97.3z"/>
	<path d="M120.4,91.7v10.5h-6.1V73.3h10.5c3.8,0,6.7,0.8,8.7,2.4c2,1.6,3,3.9,3,6.8c0,1.9-0.4,3.5-1.3,4.9c-0.9,1.3-2.2,2.4-3.8,3.1
		c1.2,1.9,2.4,3.8,3.6,5.7c1.2,1.9,2.4,3.9,3.5,5.9h-7.1c-1.9-3.5-3.9-7-6-10.5c-0.2,0-0.4,0-0.6,0H120.4z M120.4,86.8h4
		c1.9,0,3.4-0.3,4.3-1s1.5-1.8,1.5-3.2c0-1.5-0.5-2.6-1.5-3.3c-1-0.7-2.4-1-4.3-1h-4.1V86.8z"/>
	<path d="M150.3,102.7c-1.6,0-3.1-0.2-4.7-0.5c-1.5-0.3-3-0.9-4.4-1.6V95c2.9,1.7,5.9,2.6,9.1,2.6c1.8,0,3.2-0.3,4.2-0.9
		c1-0.6,1.4-1.5,1.4-2.6c0-0.8-0.2-1.5-0.7-2c-0.5-0.5-1.1-0.8-1.9-1.1s-1.6-0.5-2.6-0.8c-1.6-0.4-3-0.8-4.2-1.3s-2.2-1.1-3.1-1.7
		c-0.8-0.7-1.5-1.4-1.9-2.4c-0.4-0.9-0.6-2-0.6-3.3c0-1.8,0.5-3.4,1.4-4.7c0.9-1.3,2.2-2.3,3.9-3c1.7-0.7,3.7-1.1,6-1.1
		c1.5,0,3,0.2,4.5,0.5s2.8,0.8,4,1.4v5.5c-1.2-0.7-2.5-1.3-4-1.7c-1.5-0.4-3-0.6-4.5-0.6c-1.6,0-2.9,0.3-3.8,0.8
		c-0.9,0.6-1.3,1.4-1.3,2.4c0,0.8,0.2,1.3,0.6,1.8c0.4,0.4,1,0.8,1.8,1.1c0.8,0.3,1.7,0.6,2.8,0.8c1.4,0.3,2.6,0.7,3.8,1.1
		c1.2,0.4,2.2,0.9,3.1,1.6c0.9,0.6,1.6,1.5,2.1,2.5c0.5,1,0.7,2.2,0.7,3.7c0,1.9-0.5,3.5-1.4,4.9c-0.9,1.4-2.3,2.4-4.1,3.1
		S152.8,102.7,150.3,102.7z"/>
</g>
</svg>