<!-- Generator: Adobe Illustrator 19.2.1, SVG Export Plug-In  -->
<svg version="1.1"
	 xmlns="http://www.w3.org/2000/svg" xmlns:xlink="http://www.w3.org/1999/xlink" xmlns:a="http://ns.adobe.com/AdobeSVGViewerExtensions/3.0/"
	 x="0px" y="0px" width="192px" height="192px" viewBox="0 0 192 192" style="enable-background:new 0 0 192 192;"
	 xml:space="preserve">
<style type="text/css">
	.st0{fill:#FFD230;}
</style>
<defs>
</defs>
<g>
	<rect class="st0" width="192" height="192"/>
	<g>
		<path d="M71.4,78.5c0-0.6-0.2-1.1-0.8-1.5c-0.5-0.4-1.4-0.6-2.6-0.6h-2.6v4.3h2.7c1.3,0,2.1-0.3,2.6-0.7
			C71.2,79.6,71.4,79.1,71.4,78.5 M69.2,73.4c0.5-0.4,0.7-0.9,0.7-1.6c0-0.5-0.2-1-0.5-1.3c-0.4-0.3-1-0.6-2.1-0.6h-1.9v4.1h1.3
			C67.9,73.9,68.7,73.7,69.2,73.4 M62.6,67.4h5c1.8,0,3.1,0.5,4,1.3c0.9,0.8,1.3,1.8,1.3,2.9c0,0.8-0.2,1.6-0.7,2.1
			c-0.3,0.4-0.8,0.8-1.4,1.1c2.1,0.6,3.4,2.1,3.4,4.1c0,1-0.4,2.1-1.3,2.9c-0.9,0.8-2.4,1.4-4.5,1.4h-5.8V67.4z M56.5,86.2h23.3
			V64.3H56.5V86.2z M96,73.4c0.5-0.4,0.7-0.9,0.7-1.6c0-0.5-0.2-1-0.5-1.3c-0.4-0.3-1-0.6-2.1-0.6h-1.9v4.1h1.3
			C94.7,73.9,95.5,73.7,96,73.4 M97.4,77c-0.5-0.4-1.4-0.6-2.6-0.6h-2.6v4.3H95c1.3,0,2.1-0.3,2.6-0.7c0.5-0.4,0.6-0.9,0.6-1.5
			C98.2,77.9,98,77.4,97.4,77 M99.8,81.8c-0.9,0.8-2.4,1.4-4.5,1.4h-5.8V67.4h5c1.8,0,3.1,0.5,4,1.3c0.9,0.8,1.3,1.8,1.3,2.9
			c0,0.8-0.2,1.6-0.7,2.1c-0.3,0.4-0.8,0.8-1.4,1.1c2.1,0.6,3.5,2.1,3.4,4.1C101.1,79.9,100.7,81,99.8,81.8 M106.6,64.3H83.3v21.9
			h23.3V64.3z M128.9,82l-0.1,0.1c-1.6,0.8-3.4,1.4-6,1.4h0c-3.1,0-5.4-1.1-6.9-2.7c-1.5-1.6-2.2-3.5-2.2-5.2c0-2.4,1-4.5,2.6-6
			c1.6-1.5,3.9-2.4,6.6-2.4c1.7,0,3.4,0.4,5.7,1.3l0.2,0.1v2.9l-0.4-0.2c-2-1.1-3.6-1.6-5.5-1.6c-3.6,0-6.2,2.4-6.2,5.6
			c0,3.3,2.5,5.6,6.3,5.6c1.8,0,3.7-0.6,5.5-1.7l0.4-0.2V82z M133.5,64.3h-23.3v21.9h23.3V64.3z M138.8,98.4v5.3h9v23.3h6.1v-23.3h9
			v-5.3H138.8z M123.5,111.8h-4v-8.6h4c4,0,6,1.4,6,4.3C129.5,110.4,127.5,111.8,123.5,111.8 M134.3,112.3c0.9-1.3,1.4-2.9,1.4-4.8
			c0-3-1-5.2-3-6.8c-2-1.5-5-2.3-8.8-2.3h-10.3v28.6h6v-10.5h5.2c1.1,1.7,2.1,3.5,3.1,5.2c1,1.7,2,3.5,2.9,5.2h6.8
			c-2.3-4-4.7-7.9-7.2-11.7C132.1,114.7,133.4,113.7,134.3,112.3 M100.2,119.8c-1.4,1.7-3.3,2.5-5.8,2.5c-2.5,0-4.4-0.8-5.7-2.5
			c-1.4-1.7-2.1-4-2.1-7.1c0-3,0.7-5.4,2.1-7.1c1.4-1.7,3.3-2.5,5.7-2.5c2.5,0,4.4,0.8,5.8,2.5c1.4,1.7,2.1,4,2.1,7.1
			C102.2,115.8,101.5,118.1,100.2,119.8 M104.8,101.9c-1.2-1.3-2.7-2.3-4.5-3c-1.8-0.7-3.7-1-5.9-1c-2.2,0-4.1,0.3-5.9,1
			c-1.7,0.7-3.2,1.7-4.5,3c-1.2,1.3-2.2,2.9-2.8,4.7c-0.7,1.8-1,3.9-1,6.2c0,2.3,0.3,4.3,1,6.2s1.6,3.4,2.9,4.7
			c1.2,1.3,2.7,2.3,4.5,3c1.7,0.7,3.7,1.1,5.8,1.1c2.2,0,4.1-0.4,5.9-1.1c1.7-0.7,3.2-1.7,4.5-3c1.2-1.3,2.2-2.9,2.9-4.7
			c0.7-1.8,1-3.9,1-6.2c0-2.3-0.3-4.3-1-6.2C106.9,104.7,106,103.2,104.8,101.9 M69.1,111.4c-0.9,0.7-2.4,1.1-4.3,1.1H61v-9.2h3.8
			c1.9,0,3.4,0.4,4.3,1.1c0.9,0.7,1.4,1.9,1.4,3.5C70.6,109.5,70.1,110.6,69.1,111.4 M73.8,100.9c-2-1.6-4.9-2.4-8.6-2.4H55.1v28.6
			h6v-9.8h4.1c3.7,0,6.6-0.8,8.6-2.4c2-1.6,3-3.9,3-7C76.8,104.8,75.8,102.5,73.8,100.9 M47.4,112.6c-0.9-0.6-1.9-1.2-3.1-1.6
			c-1.2-0.4-2.4-0.8-3.8-1.1c-0.8-0.2-1.5-0.4-2.2-0.6c-0.7-0.2-1.2-0.5-1.7-0.7c-0.5-0.3-0.8-0.6-1.1-1c-0.2-0.4-0.4-0.9-0.4-1.4
			c0-1,0.5-1.8,1.4-2.4c0.9-0.6,2.2-0.9,3.8-0.9c1.5,0,2.9,0.2,4.4,0.6c1.5,0.4,2.8,1,4,1.7v-5.4c-1.2-0.6-2.5-1.1-3.9-1.4
			c-1.5-0.3-2.9-0.5-4.5-0.5c-1.7,0-3.3,0.2-4.7,0.6c-1.4,0.4-2.6,1-3.6,1.7c-1,0.8-1.7,1.7-2.3,2.8c-0.5,1.1-0.8,2.3-0.8,3.7
			c0,1.3,0.2,2.4,0.6,3.3c0.4,0.9,1,1.7,1.9,2.4c0.8,0.7,1.8,1.2,3.1,1.7c1.2,0.5,2.6,0.9,4.2,1.3c0.7,0.2,1.4,0.3,2,0.5
			c0.6,0.2,1.2,0.4,1.7,0.7c0.5,0.3,0.9,0.6,1.1,1c0.3,0.4,0.4,0.9,0.4,1.5c0,1.1-0.5,2-1.4,2.6c-1,0.6-2.3,0.9-4.2,0.9
			c-3.2,0-6.2-0.9-9.1-2.6v5.4c3,1.4,6,2.2,9.1,2.2c3.7,0,6.6-0.8,8.7-2.4c2.1-1.6,3.1-3.8,3.1-6.6c0-1.4-0.2-2.6-0.7-3.6
			C48.9,114.1,48.2,113.3,47.4,112.6"/>
	</g>
</g>
</svg>
