<!-- Generator: Adobe Illustrator 19.2.1, SVG Export Plug-In  -->
<svg version="1.1"
	 xmlns="http://www.w3.org/2000/svg" xmlns:xlink="http://www.w3.org/1999/xlink" xmlns:a="http://ns.adobe.com/AdobeSVGViewerExtensions/3.0/"
	 x="0px" y="0px" width="192px" height="192px" viewBox="0 0 192 192" style="enable-background:new 0 0 192 192;"
	 xml:space="preserve">
<style type="text/css">
	.st0{fill:#FFD230;}
</style>
<defs>
</defs>
<rect class="st0" width="192" height="192"/>
<g>
	<path d="M47.5,87.7c-0.9-0.6-1.9-1.2-3.1-1.6c-1.2-0.4-2.4-0.8-3.8-1.1c-0.8-0.2-1.5-0.4-2.2-0.6c-0.7-0.2-1.2-0.5-1.7-0.7
		c-0.5-0.3-0.8-0.6-1.1-1c-0.2-0.4-0.4-0.9-0.4-1.4c0-1,0.5-1.8,1.4-2.4c0.9-0.6,2.2-0.9,3.8-0.9c1.5,0,2.9,0.2,4.4,0.6
		c1.5,0.4,2.8,1,4,1.7v-5.4c-1.2-0.6-2.5-1.1-3.9-1.4c-1.5-0.3-2.9-0.5-4.5-0.5c-1.7,0-3.3,0.2-4.7,0.6c-1.4,0.4-2.6,1-3.6,1.7
		c-1,0.8-1.7,1.7-2.3,2.8c-0.5,1.1-0.8,2.3-0.8,3.7c0,1.3,0.2,2.4,0.6,3.3c0.4,0.9,1,1.7,1.9,2.4c0.8,0.7,1.8,1.2,3.1,1.7
		c1.2,0.5,2.6,0.9,4.2,1.3c0.7,0.2,1.4,0.3,2,0.5c0.6,0.2,1.2,0.4,1.7,0.7c0.5,0.3,0.9,0.6,1.1,1c0.3,0.4,0.4,0.9,0.4,1.5
		c0,1.1-0.5,2-1.4,2.6c-1,0.6-2.3,0.9-4.2,0.9c-3.2,0-6.2-0.9-9.1-2.6v5.4c3,1.4,6,2.2,9,2.2c3.7,0,6.6-0.8,8.7-2.4
		c2.1-1.6,3.1-3.8,3.1-6.6c0-1.4-0.2-2.6-0.7-3.6C49,89.1,48.4,88.3,47.5,87.7 M73.9,75.9c-2-1.6-4.9-2.4-8.6-2.4H55.2v28.6h6v-9.8
		h4.1c3.7,0,6.6-0.8,8.6-2.4c2-1.6,3-3.9,3-7C76.9,79.9,75.9,77.5,73.9,75.9 M69.2,86.4c-0.9,0.7-2.4,1.1-4.3,1.1h-3.8v-9.2h3.8
		c1.9,0,3.4,0.4,4.3,1.1c0.9,0.7,1.4,1.9,1.4,3.5C70.7,84.5,70.2,85.7,69.2,86.4 M104.9,76.9c-1.2-1.3-2.7-2.3-4.5-3
		c-1.8-0.7-3.7-1-5.9-1c-2.2,0-4.1,0.3-5.9,1c-1.7,0.7-3.2,1.7-4.5,3c-1.2,1.3-2.2,2.9-2.8,4.7c-0.7,1.8-1,3.9-1,6.2
		c0,2.3,0.3,4.3,1,6.2c0.7,1.8,1.6,3.4,2.9,4.7c1.2,1.3,2.7,2.3,4.5,3c1.7,0.7,3.7,1.1,5.8,1.1c2.2,0,4.1-0.4,5.9-1.1
		c1.7-0.7,3.2-1.7,4.5-3c1.2-1.3,2.2-2.9,2.9-4.7c0.7-1.8,1-3.9,1-6.2c0-2.3-0.3-4.3-1-6.2C107,79.8,106.1,78.2,104.9,76.9
		 M100.3,94.9c-1.4,1.7-3.3,2.5-5.8,2.5c-2.5,0-4.4-0.8-5.7-2.5c-1.4-1.7-2.1-4-2.1-7.1c0-3,0.7-5.4,2.1-7.1
		c1.4-1.7,3.3-2.5,5.7-2.5c2.5,0,4.4,0.8,5.8,2.5c1.4,1.7,2.1,4,2.1,7.1C102.3,90.8,101.7,93.2,100.3,94.9 M134.5,87.4
		c0.9-1.3,1.4-2.9,1.4-4.8c0-3-1-5.2-3-6.8c-2-1.5-5-2.3-8.8-2.3h-10.3v28.6h6V91.7h5.2c1.1,1.7,2.1,3.5,3.1,5.2
		c1,1.7,2,3.5,2.9,5.2h6.8c-2.3-4-4.7-7.9-7.2-11.7C132.3,89.7,133.6,88.7,134.5,87.4 M123.6,86.9h-4v-8.6h4c4,0,6,1.4,6,4.3
		C129.6,85.4,127.6,86.9,123.6,86.9 M138.9,73.5v5.3h9v23.3h6.1V78.8h9v-5.3H138.9z M133.6,39.4h-23.3v21.9h23.3V39.4z M129,57
		l-0.1,0.1c-1.6,0.8-3.4,1.4-6,1.4h0c-3.1,0-5.4-1.1-6.9-2.7c-1.5-1.6-2.2-3.5-2.2-5.2c0-2.4,1-4.5,2.6-6c1.6-1.5,3.9-2.4,6.6-2.4
		c1.7,0,3.4,0.4,5.7,1.3l0.2,0.1v2.9l-0.4-0.2c-2-1.1-3.6-1.6-5.5-1.6c-3.6,0-6.2,2.4-6.2,5.6c0,3.3,2.5,5.6,6.3,5.6
		c1.8,0,3.7-0.6,5.5-1.7L129,54V57z M106.8,39.4H83.5v21.9h23.3V39.4z M99.9,56.8c-0.9,0.8-2.4,1.4-4.5,1.4h-5.8V42.5h5
		c1.8,0,3.1,0.5,4,1.3c0.9,0.8,1.3,1.8,1.3,2.9c0,0.8-0.2,1.6-0.7,2.1c-0.3,0.4-0.8,0.8-1.4,1.1c2.1,0.6,3.5,2.1,3.4,4.1
		C101.2,54.9,100.8,56,99.9,56.8 M97.5,52.1c-0.5-0.4-1.4-0.6-2.6-0.6h-2.6v4.3h2.7c1.3,0,2.1-0.3,2.6-0.7c0.5-0.4,0.6-0.9,0.6-1.5
		C98.3,53,98.1,52.5,97.5,52.1 M96.1,48.4c0.5-0.4,0.7-0.9,0.7-1.6c0-0.5-0.2-1-0.5-1.3c-0.4-0.3-1-0.6-2.1-0.6h-1.9V49h1.3
		C94.8,49,95.6,48.8,96.1,48.4 M56.6,61.3h23.3V39.4H56.6V61.3z M62.7,42.5h5c1.8,0,3.1,0.5,4,1.3c0.9,0.8,1.3,1.8,1.3,2.9
		c0,0.8-0.2,1.6-0.7,2.1c-0.3,0.4-0.8,0.8-1.4,1.1c2.1,0.6,3.4,2.1,3.4,4.1c0,1-0.4,2.1-1.3,2.9c-0.9,0.8-2.4,1.4-4.5,1.4h-5.8V42.5
		z M69.3,48.4c0.5-0.4,0.7-0.9,0.7-1.6c0-0.5-0.2-1-0.5-1.3s-1-0.6-2.1-0.6h-1.9V49h1.3C68,49,68.8,48.8,69.3,48.4 M71.5,53.6
		c0-0.6-0.2-1.1-0.8-1.5c-0.5-0.4-1.4-0.6-2.6-0.6h-2.6v4.3h2.7c1.3,0,2.1-0.3,2.6-0.7C71.3,54.6,71.5,54.1,71.5,53.6"/>
</g>
<g>
	<rect y="144" width="192" height="48"/>
	<g>
		<path class="st0" d="M159.3,174.2v-12.4h3.1c1.9,0,3.3,0.5,4.2,1.6c1,1.1,1.4,2.6,1.4,4.6c0,2-0.5,3.6-1.5,4.6
			c-1,1.1-2.4,1.6-4.2,1.6H159.3z M155,177.8h7.5c2.1,0,3.9-0.4,5.3-1.2c1.5-0.8,2.6-1.9,3.4-3.4c0.8-1.5,1.2-3.2,1.2-5.3
			s-0.4-3.8-1.2-5.3c-0.8-1.5-1.9-2.6-3.4-3.3c-1.5-0.8-3.3-1.2-5.3-1.2H155V177.8z M150.6,177.8v-19.7h-4.1v13.4
			c-1.4-2.3-2.9-4.6-4.3-6.8c-1.4-2.2-2.9-4.5-4.4-6.7h-4.3v19.7h4.1v-13.6c1.4,2.2,2.9,4.4,4.3,6.7c1.5,2.3,2.9,4.6,4.3,6.9H150.6z
			 M120.8,162.5c0.5,1.2,0.9,2.5,1.4,3.8c0.5,1.3,0.9,2.6,1.4,3.8H118C118.9,167.5,119.8,165,120.8,162.5 M130.9,177.8
			c-1.2-3.3-2.5-6.5-3.8-9.8c-1.3-3.3-2.6-6.6-4-9.8h-4.6c-1.3,3.1-2.6,6.3-3.9,9.6c-1.3,3.3-2.6,6.6-3.8,10.1h4.5
			c0.5-1.4,1-2.8,1.4-4.3h8c0.5,1.4,1,2.8,1.4,4.3H130.9z M95.2,177.8h13.6v-3.7h-9.3v-16h-4.2V177.8z M75.7,161.9h6.2v16h4.2v-16
			h6.2v-3.7H75.7V161.9z M62.1,173.8c-0.8-0.5-1.4-1.3-1.8-2.2c-0.4-1-0.6-2.2-0.6-3.5c0-1.4,0.2-2.6,0.6-3.5c0.4-1,1-1.7,1.8-2.2
			c0.8-0.5,1.8-0.8,2.9-0.8c1.1,0,2.1,0.3,2.9,0.8c0.8,0.5,1.4,1.3,1.8,2.2c0.4,1,0.6,2.2,0.6,3.5c0,1.4-0.2,2.6-0.6,3.5
			c-0.4,1-1,1.7-1.8,2.2c-0.8,0.5-1.8,0.8-2.9,0.8C63.8,174.6,62.9,174.3,62.1,173.8 M60.9,158.5c-1.2,0.5-2.2,1.2-3.1,2
			c-0.9,0.9-1.5,2-2,3.2c-0.5,1.3-0.7,2.7-0.7,4.2c0,1.6,0.2,3,0.7,4.2c0.5,1.3,1.1,2.3,2,3.2c0.9,0.9,1.9,1.6,3.1,2.1
			c1.2,0.5,2.5,0.7,4,0.7s2.8-0.2,4-0.7c1.2-0.5,2.2-1.2,3.1-2.1c0.9-0.9,1.5-2,2-3.2c0.5-1.3,0.7-2.7,0.7-4.2c0-1.6-0.2-3-0.7-4.2
			c-0.5-1.3-1.1-2.3-2-3.2c-0.9-0.9-1.9-1.6-3.1-2c-1.2-0.5-2.5-0.7-4-0.7S62.1,158,60.9,158.5 M50.2,177.8c1.1-0.3,2-0.6,2.8-1.1
			v-3.8c-1.7,1.1-3.6,1.6-5.6,1.6c-1.3,0-2.4-0.3-3.4-0.8c-0.9-0.5-1.6-1.3-2.1-2.2c-0.5-1-0.7-2.2-0.7-3.6c0-1.4,0.3-2.6,0.8-3.5
			c0.5-1,1.2-1.7,2.2-2.2c0.9-0.5,2.1-0.8,3.4-0.8c1,0,1.9,0.1,2.8,0.4c0.9,0.3,1.7,0.7,2.4,1.2v-3.9c-0.8-0.4-1.7-0.8-2.7-1
			c-1-0.2-2-0.3-3.1-0.3c-1.6,0-3,0.2-4.2,0.7c-1.3,0.5-2.3,1.2-3.2,2.1c-0.9,0.9-1.6,2-2.1,3.2c-0.5,1.3-0.7,2.7-0.7,4.2
			c0,1.6,0.2,3,0.7,4.3c0.5,1.3,1.1,2.4,2,3.2c0.9,0.9,1.9,1.6,3.2,2c1.2,0.5,2.6,0.7,4.2,0.7C48,178.2,49.1,178.1,50.2,177.8
			 M30.4,177.5c1.2-0.5,2.1-1.2,2.8-2.1c0.6-0.9,1-2,1-3.3c0-1-0.2-1.8-0.5-2.5s-0.8-1.2-1.4-1.7c-0.6-0.4-1.3-0.8-2.1-1.1
			c-0.8-0.3-1.7-0.5-2.6-0.8c-0.7-0.2-1.4-0.4-1.9-0.6c-0.5-0.2-1-0.4-1.3-0.7c-0.3-0.3-0.4-0.7-0.4-1.2c0-0.7,0.3-1.3,0.9-1.6
			c0.6-0.4,1.5-0.6,2.6-0.6c1,0,2,0.1,3.1,0.4c1,0.3,1.9,0.7,2.7,1.2v-3.7c-0.8-0.4-1.7-0.7-2.7-1c-1-0.2-2-0.4-3.1-0.4
			c-1.6,0-3,0.2-4.1,0.7c-1.2,0.5-2,1.2-2.7,2.1c-0.6,0.9-0.9,2-0.9,3.2c0,0.9,0.1,1.6,0.4,2.3c0.3,0.6,0.7,1.2,1.3,1.6
			c0.6,0.4,1.3,0.8,2.1,1.2c0.8,0.3,1.8,0.6,2.9,0.9c0.7,0.2,1.3,0.3,1.8,0.5c0.5,0.2,1,0.4,1.3,0.8c0.3,0.3,0.5,0.8,0.5,1.3
			c0,0.8-0.3,1.3-1,1.8c-0.7,0.4-1.6,0.6-2.8,0.6c-2.2,0-4.3-0.6-6.2-1.8v3.8c1,0.5,2,0.9,3,1.1c1.1,0.2,2.1,0.4,3.2,0.4
			C27.7,178.2,29.2,178,30.4,177.5"/>
	</g>
</g>
</svg>
